<?xml version="1.0" standalone="no"?>
<!DOCTYPE svg PUBLIC "-//W3C//DTD SVG 20010904//EN"
 "http://www.w3.org/TR/2001/REC-SVG-20010904/DTD/svg10.dtd">
<svg version="1.0" xmlns="http://www.w3.org/2000/svg"
 width="700.000000pt" height="700.000000pt" viewBox="0 0 700.000000 700.000000"
 preserveAspectRatio="xMidYMid meet">
<metadata>
Created by potrace 1.11, written by Peter Selinger 2001-2013
</metadata>
<g transform="translate(0.000000,700.000000) scale(0.100000,-0.100000)"
fill="#000000" stroke="none">
<path d="M3938 6985 c-2 -1 -52 -6 -113 -9 -140 -9 -318 -28 -390 -42 -11 -2
-60 -11 -110 -19 -331 -57 -680 -172 -971 -320 -255 -129 -444 -265 -635 -455
-294 -292 -451 -580 -529 -970 -28 -139 -31 -461 -6 -586 2 -12 7 -37 10 -56
34 -218 133 -476 258 -675 136 -219 386 -467 593 -590 191 -113 262 -148 530
-257 105 -43 199 -82 210 -87 30 -14 316 -122 530 -201 282 -104 302 -112 399
-152 253 -105 374 -194 436 -320 40 -81 50 -146 34 -224 -40 -196 -262 -370
-577 -451 -77 -20 -94 -23 -215 -39 -63 -9 -324 -7 -392 2 -288 39 -647 153
-975 310 -130 62 -337 181 -343 198 -2 4 -8 8 -13 8 -13 0 -157 110 -188 144
-14 14 -28 26 -32 26 -4 0 -72 -78 -149 -172 -166 -203 -175 -214 -209 -253
-14 -17 -39 -48 -56 -69 -16 -21 -35 -44 -40 -50 -6 -6 -51 -60 -100 -121 -49
-60 -94 -115 -100 -122 -36 -42 -90 -109 -215 -263 -78 -96 -147 -180 -154
-185 -6 -6 -26 -29 -44 -52 l-32 -42 67 -56 c191 -158 499 -337 789 -460 60
-25 118 -50 129 -55 125 -59 565 -182 800 -224 17 -3 39 -8 50 -10 17 -3 55
-9 140 -21 66 -10 106 -15 150 -20 28 -3 65 -7 82 -9 248 -31 830 -26 1098 9
91 12 133 17 155 21 14 2 54 9 90 14 141 22 395 82 500 117 25 8 52 16 60 18
23 5 256 93 308 116 109 49 289 143 372 195 393 243 697 577 850 935 17 41 35
83 40 94 11 26 58 191 64 228 3 15 7 35 10 45 3 9 7 33 10 52 3 19 8 44 10 56
10 49 20 187 20 284 0 101 -11 278 -19 289 -1 3 -6 24 -9 45 -21 132 -87 330
-157 467 -84 168 -193 314 -354 475 -196 197 -333 296 -575 415 -121 60 -565
222 -945 345 -93 30 -179 59 -190 64 -11 5 -67 23 -125 41 -58 17 -109 36
-115 40 -5 5 -16 9 -26 9 -9 0 -80 32 -158 71 -120 60 -152 81 -216 143 -84
82 -122 151 -128 237 -13 197 123 365 384 472 71 30 187 68 204 68 2 0 19 5
37 10 18 5 49 12 68 15 19 2 44 6 55 9 88 18 276 23 405 11 117 -11 300 -52
385 -85 11 -5 58 -23 105 -42 87 -34 281 -131 351 -175 21 -13 41 -24 44 -24
3 0 53 -29 111 -65 59 -36 110 -65 115 -65 5 0 9 -4 9 -10 0 -5 4 -10 9 -10 6
0 52 -26 103 -58 51 -32 98 -61 104 -65 6 -3 36 25 70 66 32 40 69 83 81 97
12 14 114 138 228 275 114 138 214 259 224 270 9 11 83 101 165 200 82 99 176
211 208 250 l58 69 -42 41 c-140 133 -343 279 -558 400 -78 45 -324 165 -336
165 -3 0 -26 10 -52 21 -251 115 -755 240 -1067 264 -33 3 -85 8 -115 11 -52
6 -536 14 -542 9z"/>
</g>
</svg>
